<?xml version="1.0" encoding="utf-8"?>
<svg version="1.1" xmlns:xlink="http://www.w3.org/1999/xlink" width="190px" height="190px" xmlns="http://www.w3.org/2000/svg">
  <g transform="matrix(1 0 0 1 -93 -85 )">
    <path d="M 188 85.5  C 240.92 85.5  282.5 127.08  282.5 180  C 282.5 232.92  240.92 274.5  188 274.5  C 135.08 274.5  93.5 232.92  93.5 180  C 93.5 127.08  135.08 85.5  188 85.5  Z " fill-rule="nonzero" fill="#ffffff" stroke="none" fill-opacity="0" />
    <path d="M 188 85.5  C 240.92 85.5  282.5 127.08  282.5 180  C 282.5 232.92  240.92 274.5  188 274.5  C 135.08 274.5  93.5 232.92  93.5 180  C 93.5 127.08  135.08 85.5  188 85.5  Z " stroke-width="1" stroke-dasharray="9,4,2,4" stroke="#5db2f0" fill="none" stroke-opacity="0.996078431372549" stroke-dashoffset="0.5" />
  </g>
</svg>